<?xml version="1.0" encoding="utf-8"?>
<!-- Generator: Adobe Illustrator 17.0.0, SVG Export Plug-In . SVG Version: 6.00 Build 0)  -->
<!DOCTYPE svg PUBLIC "-//W3C//DTD SVG 1.1//EN" "http://www.w3.org/Graphics/SVG/1.1/DTD/svg11.dtd">
<svg version="1.1" id="Layer_1" xmlns="http://www.w3.org/2000/svg" xmlns:xlink="http://www.w3.org/1999/xlink" x="0px" y="0px"
	 width="16px" height="16px" viewBox="0 0 16 16" enable-background="new 0 0 16 16" xml:space="preserve">
<path fill="#425661" d="M15.327,2.417H0.672H0.545H0.162H0.024v11.167h15.952V2.417h-0.552H15.327z M14.689,3.115L8.526,9.855
	c-0.28,0.307-0.771,0.307-1.052,0L1.31,3.115H14.689z M0.662,3.393l4.143,4.53l-4.143,4.532V3.393z M1.17,12.885l4.087-4.468
	l1.766,1.932c0.26,0.286,0.608,0.443,0.977,0.443c0.369,0,0.717-0.157,0.977-0.443l1.766-1.932l4.085,4.468H1.17z M15.338,12.456
	l-4.144-4.532l4.144-4.532V12.456z"/>
</svg>
