<?xml version="1.0" encoding="utf-8"?>
<!-- Generator: Adobe Illustrator 24.1.3, SVG Export Plug-In . SVG Version: 6.00 Build 0)  -->
<svg version="1.1" id="Layer_1" xmlns="http://www.w3.org/2000/svg" xmlns:xlink="http://www.w3.org/1999/xlink" x="0px" y="0px"
	 viewBox="0 0 32 32" style="enable-background:new 0 0 32 32;" xml:space="preserve">
<g>
	<path d="M32,16c0,8.8-7.2,16-16,16C7.2,32,0,24.8,0,16S7.2,0,16,0C24.8,0,32,7.2,32,16z M28.9,16c0-3.4-1.3-6.7-3.8-9.1
		c-2.4-2.4-5.7-3.8-9.1-3.8S9.3,4.4,6.9,6.9C4.4,9.3,3.1,12.6,3.1,16s1.3,6.7,3.8,9.1c2.4,2.4,5.7,3.8,9.1,3.8s6.7-1.3,9.1-3.8
		C27.6,22.7,28.9,19.4,28.9,16z M7.7,14.7l2.2-2.6L7.7,9.5c-0.6-0.7,0.2-1.6,1-1.2l5.2,3.1c0.5,0.3,0.5,1,0,1.3l-5.2,3.1
		C7.9,16.3,7.1,15.4,7.7,14.7z M24.3,19c-0.5,3.8-3.8,6.8-7.8,6.8h-0.9c-4,0-7.3-3-7.8-6.8c-0.1-0.5,0.3-1,0.9-1h14.8
		C23.9,18.1,24.3,18.5,24.3,19z M24.3,14.7c0.6,0.7-0.2,1.6-1,1.2l-5.2-3.1c-0.5-0.3-0.5-1,0-1.3l5.2-3.1c0.7-0.4,1.5,0.5,1,1.2
		l-2.2,2.6L24.3,14.7z"/>
</g>
</svg>
